<mxfile host="app.diagrams.net" agent="Mozilla/5.0 (Macintosh; Intel Mac OS X 10_15_7) AppleWebKit/537.36 (KHTML, like Gecko) Chrome/130.0.0.0 Safari/537.36" version="24.8.3" pages="2">
  <diagram name="Page-1" id="ScXx_QTe2jNqYj3CX0Ws">
    <mxGraphModel dx="2584" dy="2486" grid="0" gridSize="10" guides="1" tooltips="1" connect="1" arrows="1" fold="1" page="0" pageScale="1" pageWidth="850" pageHeight="1100" background="#D4E1F5" math="0" shadow="0">
      <root>
        <mxCell id="0" />
        <mxCell id="1" parent="0" />
        <mxCell id="f2r01Bv7eAkKPC_8rpOf-9" value="" style="rounded=0;whiteSpace=wrap;html=1;" vertex="1" parent="1">
          <mxGeometry x="957" y="181" width="420" height="480" as="geometry" />
        </mxCell>
        <mxCell id="f2r01Bv7eAkKPC_8rpOf-11" value="" style="rounded=0;whiteSpace=wrap;html=1;" vertex="1" parent="1">
          <mxGeometry x="719" y="181" width="159" height="323" as="geometry" />
        </mxCell>
        <mxCell id="f2r01Bv7eAkKPC_8rpOf-13" value="" style="rounded=0;whiteSpace=wrap;html=1;" vertex="1" parent="1">
          <mxGeometry x="70" y="-236" width="1299" height="383" as="geometry" />
        </mxCell>
        <mxCell id="f2r01Bv7eAkKPC_8rpOf-14" value="Data" style="text;strokeColor=none;align=center;fillColor=none;html=1;verticalAlign=middle;whiteSpace=wrap;rounded=0;" vertex="1" parent="1">
          <mxGeometry x="90" y="-226" width="60" height="30" as="geometry" />
        </mxCell>
        <mxCell id="f2r01Bv7eAkKPC_8rpOf-15" value="" style="rounded=0;whiteSpace=wrap;html=1;" vertex="1" parent="1">
          <mxGeometry x="127.5" y="-145" width="246" height="223" as="geometry" />
        </mxCell>
        <mxCell id="f2r01Bv7eAkKPC_8rpOf-16" value="" style="rounded=0;whiteSpace=wrap;html=1;" vertex="1" parent="1">
          <mxGeometry x="433" y="-145" width="246" height="223" as="geometry" />
        </mxCell>
        <mxCell id="f2r01Bv7eAkKPC_8rpOf-17" value="" style="rounded=0;whiteSpace=wrap;html=1;" vertex="1" parent="1">
          <mxGeometry x="737.5" y="-145" width="246" height="223" as="geometry" />
        </mxCell>
        <mxCell id="f2r01Bv7eAkKPC_8rpOf-18" value="Raw" style="text;strokeColor=none;align=center;fillColor=none;html=1;verticalAlign=middle;whiteSpace=wrap;rounded=0;" vertex="1" parent="1">
          <mxGeometry x="136" y="-137" width="60" height="30" as="geometry" />
        </mxCell>
        <mxCell id="f2r01Bv7eAkKPC_8rpOf-19" value="Raw_Combined" style="text;strokeColor=none;align=center;fillColor=none;html=1;verticalAlign=middle;whiteSpace=wrap;rounded=0;" vertex="1" parent="1">
          <mxGeometry x="473" y="-137" width="60" height="30" as="geometry" />
        </mxCell>
        <mxCell id="f2r01Bv7eAkKPC_8rpOf-20" value="Processed" style="text;strokeColor=none;align=center;fillColor=none;html=1;verticalAlign=middle;whiteSpace=wrap;rounded=0;" vertex="1" parent="1">
          <mxGeometry x="764" y="-137" width="60" height="30" as="geometry" />
        </mxCell>
        <mxCell id="f2r01Bv7eAkKPC_8rpOf-28" value="Market data&lt;div&gt;per stock&lt;/div&gt;" style="strokeWidth=2;html=1;shape=mxgraph.flowchart.stored_data;whiteSpace=wrap;" vertex="1" parent="1">
          <mxGeometry x="147" y="-95" width="100" height="60" as="geometry" />
        </mxCell>
        <mxCell id="f2r01Bv7eAkKPC_8rpOf-29" value="Market&amp;nbsp;&lt;div&gt;metadata&lt;div&gt;per stock&lt;br&gt;&lt;/div&gt;&lt;/div&gt;" style="strokeWidth=2;html=1;shape=mxgraph.flowchart.stored_data;whiteSpace=wrap;" vertex="1" parent="1">
          <mxGeometry x="147" y="-5" width="100" height="60" as="geometry" />
        </mxCell>
        <mxCell id="f2r01Bv7eAkKPC_8rpOf-30" value="Fundamentalist data&lt;div&gt;per stock&lt;br&gt;&lt;/div&gt;" style="strokeWidth=2;html=1;shape=mxgraph.flowchart.stored_data;whiteSpace=wrap;" vertex="1" parent="1">
          <mxGeometry x="258" y="-95" width="100" height="60" as="geometry" />
        </mxCell>
        <mxCell id="f2r01Bv7eAkKPC_8rpOf-31" value="Fundamentalist&lt;div&gt;&amp;nbsp;metadata&lt;/div&gt;&lt;div&gt;per stock&lt;br&gt;&lt;/div&gt;" style="strokeWidth=2;html=1;shape=mxgraph.flowchart.stored_data;whiteSpace=wrap;" vertex="1" parent="1">
          <mxGeometry x="258" y="-5" width="100" height="60" as="geometry" />
        </mxCell>
        <mxCell id="f2r01Bv7eAkKPC_8rpOf-32" style="rounded=0;orthogonalLoop=1;jettySize=auto;html=1;exitX=0.5;exitY=1;exitDx=0;exitDy=0;exitPerimeter=0;entryX=0.5;entryY=0;entryDx=0;entryDy=0;entryPerimeter=0;endArrow=diamond;endFill=1;startArrow=diamond;startFill=1;" edge="1" parent="1" source="f2r01Bv7eAkKPC_8rpOf-28" target="f2r01Bv7eAkKPC_8rpOf-29">
          <mxGeometry relative="1" as="geometry" />
        </mxCell>
        <mxCell id="f2r01Bv7eAkKPC_8rpOf-33" style="rounded=0;orthogonalLoop=1;jettySize=auto;html=1;exitX=0.5;exitY=1;exitDx=0;exitDy=0;exitPerimeter=0;entryX=0.5;entryY=0;entryDx=0;entryDy=0;entryPerimeter=0;endArrow=diamond;endFill=1;startArrow=diamond;startFill=1;" edge="1" parent="1">
          <mxGeometry relative="1" as="geometry">
            <mxPoint x="307.47" y="-35" as="sourcePoint" />
            <mxPoint x="307.47" y="-5" as="targetPoint" />
          </mxGeometry>
        </mxCell>
        <mxCell id="f2r01Bv7eAkKPC_8rpOf-50" value="Aggregated market data&lt;div&gt;per month-year&lt;/div&gt;" style="strokeWidth=2;html=1;shape=mxgraph.flowchart.stored_data;whiteSpace=wrap;" vertex="1" parent="1">
          <mxGeometry x="447" y="-95" width="100" height="74" as="geometry" />
        </mxCell>
        <mxCell id="f2r01Bv7eAkKPC_8rpOf-52" value="Aggregated fundamentalist data&amp;nbsp;&lt;span style=&quot;background-color: initial;&quot;&gt;per&amp;nbsp;&lt;/span&gt;&lt;div&gt;&lt;span style=&quot;background-color: initial;&quot;&gt;month-year&lt;/span&gt;&lt;/div&gt;" style="strokeWidth=2;html=1;shape=mxgraph.flowchart.stored_data;whiteSpace=wrap;" vertex="1" parent="1">
          <mxGeometry x="563" y="-95" width="100" height="74" as="geometry" />
        </mxCell>
        <mxCell id="f2r01Bv7eAkKPC_8rpOf-174" style="edgeStyle=orthogonalEdgeStyle;rounded=0;orthogonalLoop=1;jettySize=auto;html=1;entryX=0.5;entryY=0;entryDx=0;entryDy=0;" edge="1" parent="1" source="f2r01Bv7eAkKPC_8rpOf-57" target="f2r01Bv7eAkKPC_8rpOf-142">
          <mxGeometry relative="1" as="geometry" />
        </mxCell>
        <mxCell id="f2r01Bv7eAkKPC_8rpOf-57" value="Training Data" style="strokeWidth=2;html=1;shape=mxgraph.flowchart.stored_data;whiteSpace=wrap;" vertex="1" parent="1">
          <mxGeometry x="755" y="-95" width="100" height="74" as="geometry" />
        </mxCell>
        <mxCell id="f2r01Bv7eAkKPC_8rpOf-185" style="edgeStyle=orthogonalEdgeStyle;rounded=0;orthogonalLoop=1;jettySize=auto;html=1;strokeWidth=4;" edge="1" parent="1" source="f2r01Bv7eAkKPC_8rpOf-58" target="f2r01Bv7eAkKPC_8rpOf-197">
          <mxGeometry relative="1" as="geometry">
            <Array as="points">
              <mxPoint x="921" y="280" />
            </Array>
          </mxGeometry>
        </mxCell>
        <mxCell id="f2r01Bv7eAkKPC_8rpOf-58" value="Testing Data" style="strokeWidth=2;html=1;shape=mxgraph.flowchart.stored_data;whiteSpace=wrap;" vertex="1" parent="1">
          <mxGeometry x="871" y="-95" width="100" height="74" as="geometry" />
        </mxCell>
        <mxCell id="f2r01Bv7eAkKPC_8rpOf-196" style="edgeStyle=orthogonalEdgeStyle;rounded=0;orthogonalLoop=1;jettySize=auto;html=1;exitX=1;exitY=0.75;exitDx=0;exitDy=0;" edge="1" parent="1" source="f2r01Bv7eAkKPC_8rpOf-67" target="f2r01Bv7eAkKPC_8rpOf-176">
          <mxGeometry relative="1" as="geometry" />
        </mxCell>
        <mxCell id="f2r01Bv7eAkKPC_8rpOf-67" value="" style="rounded=0;whiteSpace=wrap;html=1;" vertex="1" parent="1">
          <mxGeometry x="-234" y="181" width="938" height="480" as="geometry" />
        </mxCell>
        <mxCell id="f2r01Bv7eAkKPC_8rpOf-68" value="Return Trend Forecasting&lt;div&gt;Model Architecture&lt;/div&gt;" style="text;strokeColor=none;align=center;fillColor=none;html=1;verticalAlign=middle;whiteSpace=wrap;rounded=0;" vertex="1" parent="1">
          <mxGeometry x="-227" y="206" width="100" height="30" as="geometry" />
        </mxCell>
        <mxCell id="f2r01Bv7eAkKPC_8rpOf-93" value="" style="group" vertex="1" connectable="0" parent="1">
          <mxGeometry x="454" y="372" width="90" height="90" as="geometry" />
        </mxCell>
        <mxCell id="f2r01Bv7eAkKPC_8rpOf-92" value="" style="verticalLabelPosition=bottom;verticalAlign=top;html=1;shape=mxgraph.flowchart.on-page_reference;" vertex="1" parent="f2r01Bv7eAkKPC_8rpOf-93">
          <mxGeometry width="90" height="90" as="geometry" />
        </mxCell>
        <mxCell id="f2r01Bv7eAkKPC_8rpOf-91" value="" style="shape=image;verticalLabelPosition=bottom;labelBackgroundColor=default;verticalAlign=top;aspect=fixed;imageAspect=0;image=https://static.thenounproject.com/png/4823543-200.png;" vertex="1" parent="f2r01Bv7eAkKPC_8rpOf-93">
          <mxGeometry x="7.75" y="5.75" width="74.5" height="74.5" as="geometry" />
        </mxCell>
        <mxCell id="f2r01Bv7eAkKPC_8rpOf-99" value="" style="group" vertex="1" connectable="0" parent="1">
          <mxGeometry x="315" y="372" width="90" height="90" as="geometry" />
        </mxCell>
        <mxCell id="f2r01Bv7eAkKPC_8rpOf-100" value="" style="verticalLabelPosition=bottom;verticalAlign=top;html=1;shape=mxgraph.flowchart.on-page_reference;" vertex="1" parent="f2r01Bv7eAkKPC_8rpOf-99">
          <mxGeometry width="90" height="90" as="geometry" />
        </mxCell>
        <mxCell id="f2r01Bv7eAkKPC_8rpOf-101" value="" style="shape=image;verticalLabelPosition=bottom;labelBackgroundColor=default;verticalAlign=top;aspect=fixed;imageAspect=0;image=https://static.thenounproject.com/png/3911638-200.png;" vertex="1" parent="f2r01Bv7eAkKPC_8rpOf-99">
          <mxGeometry x="11" y="17" width="69" height="69" as="geometry" />
        </mxCell>
        <mxCell id="f2r01Bv7eAkKPC_8rpOf-126" value="" style="rounded=0;whiteSpace=wrap;html=1;" vertex="1" parent="1">
          <mxGeometry x="-196" y="270" width="433" height="294" as="geometry" />
        </mxCell>
        <mxCell id="f2r01Bv7eAkKPC_8rpOf-123" value="" style="shape=image;verticalLabelPosition=bottom;labelBackgroundColor=default;verticalAlign=top;aspect=fixed;imageAspect=0;image=https://docs.pymor.org/main/_images/lstm_cell.svg;" vertex="1" parent="1">
          <mxGeometry x="-179.99857142857132" y="279.9957142857147" width="351" height="258" as="geometry" />
        </mxCell>
        <mxCell id="f2r01Bv7eAkKPC_8rpOf-127" value="LSTM Cell" style="text;strokeColor=none;align=center;fillColor=none;html=1;verticalAlign=middle;whiteSpace=wrap;rounded=0;" vertex="1" parent="1">
          <mxGeometry x="-189" y="273" width="60" height="30" as="geometry" />
        </mxCell>
        <mxCell id="f2r01Bv7eAkKPC_8rpOf-129" style="edgeStyle=orthogonalEdgeStyle;rounded=0;orthogonalLoop=1;jettySize=auto;html=1;exitX=1;exitY=0.5;exitDx=0;exitDy=0;entryX=0;entryY=0.5;entryDx=0;entryDy=0;entryPerimeter=0;" edge="1" parent="1" source="f2r01Bv7eAkKPC_8rpOf-126" target="f2r01Bv7eAkKPC_8rpOf-100">
          <mxGeometry relative="1" as="geometry" />
        </mxCell>
        <mxCell id="f2r01Bv7eAkKPC_8rpOf-132" style="edgeStyle=orthogonalEdgeStyle;rounded=0;orthogonalLoop=1;jettySize=auto;html=1;exitX=1;exitY=0.5;exitDx=0;exitDy=0;exitPerimeter=0;entryX=0;entryY=0.5;entryDx=0;entryDy=0;entryPerimeter=0;" edge="1" parent="1" source="f2r01Bv7eAkKPC_8rpOf-100" target="f2r01Bv7eAkKPC_8rpOf-92">
          <mxGeometry relative="1" as="geometry" />
        </mxCell>
        <mxCell id="f2r01Bv7eAkKPC_8rpOf-133" value="" style="strokeWidth=2;html=1;shape=mxgraph.flowchart.annotation_2;align=left;labelPosition=right;pointerEvents=1;" vertex="1" parent="1">
          <mxGeometry x="547" y="367" width="50" height="100" as="geometry" />
        </mxCell>
        <mxCell id="f2r01Bv7eAkKPC_8rpOf-134" value="Return will go up" style="ellipse;whiteSpace=wrap;html=1;" vertex="1" parent="1">
          <mxGeometry x="599" y="329" width="83" height="80" as="geometry" />
        </mxCell>
        <mxCell id="f2r01Bv7eAkKPC_8rpOf-135" value="Return will go down or stay the same" style="ellipse;whiteSpace=wrap;html=1;" vertex="1" parent="1">
          <mxGeometry x="599" y="429" width="83" height="80" as="geometry" />
        </mxCell>
        <mxCell id="f2r01Bv7eAkKPC_8rpOf-175" style="edgeStyle=orthogonalEdgeStyle;rounded=0;orthogonalLoop=1;jettySize=auto;html=1;" edge="1" parent="1" source="f2r01Bv7eAkKPC_8rpOf-142" target="f2r01Bv7eAkKPC_8rpOf-67">
          <mxGeometry relative="1" as="geometry" />
        </mxCell>
        <mxCell id="f2r01Bv7eAkKPC_8rpOf-182" style="edgeStyle=orthogonalEdgeStyle;rounded=0;orthogonalLoop=1;jettySize=auto;html=1;" edge="1" parent="1" source="f2r01Bv7eAkKPC_8rpOf-142" target="f2r01Bv7eAkKPC_8rpOf-176">
          <mxGeometry relative="1" as="geometry" />
        </mxCell>
        <mxCell id="f2r01Bv7eAkKPC_8rpOf-142" value="run_training.sh" style="rounded=1;whiteSpace=wrap;html=1;absoluteArcSize=1;arcSize=14;strokeWidth=2;" vertex="1" parent="1">
          <mxGeometry x="755" y="251" width="100" height="100" as="geometry" />
        </mxCell>
        <mxCell id="f2r01Bv7eAkKPC_8rpOf-4" value="Ingestion" style="text;strokeColor=none;align=center;fillColor=none;html=1;verticalAlign=middle;whiteSpace=wrap;rounded=0;" vertex="1" parent="1">
          <mxGeometry x="156" y="-760" width="60" height="30" as="geometry" />
        </mxCell>
        <mxCell id="f2r01Bv7eAkKPC_8rpOf-26" style="edgeStyle=orthogonalEdgeStyle;rounded=0;orthogonalLoop=1;jettySize=auto;html=1;" edge="1" parent="1" source="f2r01Bv7eAkKPC_8rpOf-23" target="f2r01Bv7eAkKPC_8rpOf-25">
          <mxGeometry relative="1" as="geometry" />
        </mxCell>
        <mxCell id="f2r01Bv7eAkKPC_8rpOf-23" value="Send API Request" style="strokeWidth=2;html=1;shape=mxgraph.flowchart.start_1;whiteSpace=wrap;" vertex="1" parent="1">
          <mxGeometry x="176" y="-700" width="195" height="89" as="geometry" />
        </mxCell>
        <mxCell id="f2r01Bv7eAkKPC_8rpOf-25" value="Store raw responses in zipped json files" style="rounded=1;whiteSpace=wrap;html=1;absoluteArcSize=1;arcSize=14;strokeWidth=2;" vertex="1" parent="1">
          <mxGeometry x="223.5" y="-538" width="100" height="100" as="geometry" />
        </mxCell>
        <mxCell id="f2r01Bv7eAkKPC_8rpOf-151" value="" style="rounded=0;whiteSpace=wrap;html=1;" vertex="1" parent="1">
          <mxGeometry x="115.5" y="-770" width="270" height="360" as="geometry" />
        </mxCell>
        <mxCell id="f2r01Bv7eAkKPC_8rpOf-152" value="Ingestion" style="text;strokeColor=none;align=center;fillColor=none;html=1;verticalAlign=middle;whiteSpace=wrap;rounded=0;" vertex="1" parent="1">
          <mxGeometry x="135.5" y="-760" width="60" height="30" as="geometry" />
        </mxCell>
        <mxCell id="f2r01Bv7eAkKPC_8rpOf-153" style="edgeStyle=orthogonalEdgeStyle;rounded=0;orthogonalLoop=1;jettySize=auto;html=1;" edge="1" source="f2r01Bv7eAkKPC_8rpOf-154" target="f2r01Bv7eAkKPC_8rpOf-155" parent="1">
          <mxGeometry relative="1" as="geometry" />
        </mxCell>
        <mxCell id="f2r01Bv7eAkKPC_8rpOf-154" value="Send API Request" style="strokeWidth=2;html=1;shape=mxgraph.flowchart.start_1;whiteSpace=wrap;" vertex="1" parent="1">
          <mxGeometry x="154.5" y="-700" width="195" height="89" as="geometry" />
        </mxCell>
        <mxCell id="f2r01Bv7eAkKPC_8rpOf-156" style="edgeStyle=orthogonalEdgeStyle;rounded=0;orthogonalLoop=1;jettySize=auto;html=1;entryX=0.5;entryY=0;entryDx=0;entryDy=0;" edge="1" parent="1" source="f2r01Bv7eAkKPC_8rpOf-155" target="f2r01Bv7eAkKPC_8rpOf-15">
          <mxGeometry relative="1" as="geometry" />
        </mxCell>
        <mxCell id="f2r01Bv7eAkKPC_8rpOf-155" value="Store raw responses in zipped json files" style="rounded=1;whiteSpace=wrap;html=1;absoluteArcSize=1;arcSize=14;strokeWidth=2;" vertex="1" parent="1">
          <mxGeometry x="202" y="-538" width="100" height="100" as="geometry" />
        </mxCell>
        <mxCell id="f2r01Bv7eAkKPC_8rpOf-183" style="edgeStyle=orthogonalEdgeStyle;rounded=0;orthogonalLoop=1;jettySize=auto;html=1;" edge="1" parent="1" source="f2r01Bv7eAkKPC_8rpOf-176" target="f2r01Bv7eAkKPC_8rpOf-177">
          <mxGeometry relative="1" as="geometry">
            <Array as="points">
              <mxPoint x="900" y="439" />
              <mxPoint x="900" y="120" />
              <mxPoint x="1043" y="120" />
            </Array>
          </mxGeometry>
        </mxCell>
        <mxCell id="f2r01Bv7eAkKPC_8rpOf-176" value="Store model weights" style="rounded=1;whiteSpace=wrap;html=1;absoluteArcSize=1;arcSize=14;strokeWidth=2;" vertex="1" parent="1">
          <mxGeometry x="755" y="389" width="100" height="100" as="geometry" />
        </mxCell>
        <mxCell id="f2r01Bv7eAkKPC_8rpOf-177" value="" style="rounded=0;whiteSpace=wrap;html=1;" vertex="1" parent="1">
          <mxGeometry x="1017" y="-141" width="246" height="223" as="geometry" />
        </mxCell>
        <mxCell id="f2r01Bv7eAkKPC_8rpOf-178" value="Trained Model" style="text;strokeColor=none;align=center;fillColor=none;html=1;verticalAlign=middle;whiteSpace=wrap;rounded=0;" vertex="1" parent="1">
          <mxGeometry x="1069" y="-132" width="60" height="30" as="geometry" />
        </mxCell>
        <mxCell id="f2r01Bv7eAkKPC_8rpOf-187" style="edgeStyle=orthogonalEdgeStyle;rounded=0;orthogonalLoop=1;jettySize=auto;html=1;exitX=0.5;exitY=1;exitDx=0;exitDy=0;exitPerimeter=0;strokeWidth=4;" edge="1" parent="1" source="f2r01Bv7eAkKPC_8rpOf-179" target="f2r01Bv7eAkKPC_8rpOf-197">
          <mxGeometry relative="1" as="geometry">
            <Array as="points">
              <mxPoint x="1123" y="275" />
            </Array>
          </mxGeometry>
        </mxCell>
        <mxCell id="f2r01Bv7eAkKPC_8rpOf-179" value="Model Weights" style="strokeWidth=2;html=1;shape=mxgraph.flowchart.stored_data;whiteSpace=wrap;" vertex="1" parent="1">
          <mxGeometry x="1073" y="-81.5" width="100" height="74" as="geometry" />
        </mxCell>
        <mxCell id="f2r01Bv7eAkKPC_8rpOf-181" value="Training" style="text;strokeColor=none;align=center;fillColor=none;html=1;verticalAlign=middle;whiteSpace=wrap;rounded=0;" vertex="1" parent="1">
          <mxGeometry x="729" y="195" width="60" height="30" as="geometry" />
        </mxCell>
        <mxCell id="f2r01Bv7eAkKPC_8rpOf-184" value="Simulator" style="text;strokeColor=none;align=center;fillColor=none;html=1;verticalAlign=middle;whiteSpace=wrap;rounded=0;" vertex="1" parent="1">
          <mxGeometry x="965" y="188" width="60" height="30" as="geometry" />
        </mxCell>
        <mxCell id="f2r01Bv7eAkKPC_8rpOf-5" value="" style="rounded=0;whiteSpace=wrap;html=1;" vertex="1" parent="1">
          <mxGeometry x="496" y="-773" width="521" height="493" as="geometry" />
        </mxCell>
        <mxCell id="f2r01Bv7eAkKPC_8rpOf-6" value="Preprocessing" style="text;strokeColor=none;align=center;fillColor=none;html=1;verticalAlign=middle;whiteSpace=wrap;rounded=0;" vertex="1" parent="1">
          <mxGeometry x="516" y="-763" width="60" height="30" as="geometry" />
        </mxCell>
        <mxCell id="f2r01Bv7eAkKPC_8rpOf-44" value="" style="edgeStyle=orthogonalEdgeStyle;rounded=0;orthogonalLoop=1;jettySize=auto;html=1;" edge="1" parent="1" source="f2r01Bv7eAkKPC_8rpOf-34" target="f2r01Bv7eAkKPC_8rpOf-35">
          <mxGeometry relative="1" as="geometry" />
        </mxCell>
        <mxCell id="f2r01Bv7eAkKPC_8rpOf-34" value="Extract data from API response" style="rounded=1;whiteSpace=wrap;html=1;absoluteArcSize=1;arcSize=14;strokeWidth=2;" vertex="1" parent="1">
          <mxGeometry x="520" y="-706" width="100" height="100" as="geometry" />
        </mxCell>
        <mxCell id="f2r01Bv7eAkKPC_8rpOf-59" style="edgeStyle=orthogonalEdgeStyle;rounded=0;orthogonalLoop=1;jettySize=auto;html=1;" edge="1" parent="1" source="f2r01Bv7eAkKPC_8rpOf-35" target="f2r01Bv7eAkKPC_8rpOf-37">
          <mxGeometry relative="1" as="geometry" />
        </mxCell>
        <mxCell id="f2r01Bv7eAkKPC_8rpOf-70" style="edgeStyle=orthogonalEdgeStyle;rounded=0;orthogonalLoop=1;jettySize=auto;html=1;" edge="1" parent="1" source="f2r01Bv7eAkKPC_8rpOf-35" target="f2r01Bv7eAkKPC_8rpOf-36">
          <mxGeometry relative="1" as="geometry">
            <Array as="points">
              <mxPoint x="666" y="-504" />
            </Array>
          </mxGeometry>
        </mxCell>
        <mxCell id="f2r01Bv7eAkKPC_8rpOf-35" value="Combine all stocks by date" style="rounded=1;whiteSpace=wrap;html=1;absoluteArcSize=1;arcSize=14;strokeWidth=2;" vertex="1" parent="1">
          <mxGeometry x="520" y="-554" width="100" height="100" as="geometry" />
        </mxCell>
        <mxCell id="f2r01Bv7eAkKPC_8rpOf-36" value="Store data in parquet files" style="rounded=1;whiteSpace=wrap;html=1;absoluteArcSize=1;arcSize=14;strokeWidth=2;" vertex="1" parent="1">
          <mxGeometry x="645" y="-706" width="100" height="100" as="geometry" />
        </mxCell>
        <mxCell id="f2r01Bv7eAkKPC_8rpOf-60" style="edgeStyle=orthogonalEdgeStyle;rounded=0;orthogonalLoop=1;jettySize=auto;html=1;" edge="1" parent="1" source="f2r01Bv7eAkKPC_8rpOf-37" target="f2r01Bv7eAkKPC_8rpOf-39">
          <mxGeometry relative="1" as="geometry" />
        </mxCell>
        <mxCell id="f2r01Bv7eAkKPC_8rpOf-37" value="Transform data in tensors" style="rounded=1;whiteSpace=wrap;html=1;absoluteArcSize=1;arcSize=14;strokeWidth=2;" vertex="1" parent="1">
          <mxGeometry x="520" y="-403" width="100" height="100" as="geometry" />
        </mxCell>
        <mxCell id="f2r01Bv7eAkKPC_8rpOf-61" style="edgeStyle=orthogonalEdgeStyle;rounded=0;orthogonalLoop=1;jettySize=auto;html=1;entryX=0.5;entryY=1;entryDx=0;entryDy=0;" edge="1" parent="1" source="f2r01Bv7eAkKPC_8rpOf-39" target="f2r01Bv7eAkKPC_8rpOf-43">
          <mxGeometry relative="1" as="geometry" />
        </mxCell>
        <mxCell id="f2r01Bv7eAkKPC_8rpOf-39" value="Handle missing values and duplicates" style="rounded=1;whiteSpace=wrap;html=1;absoluteArcSize=1;arcSize=14;strokeWidth=2;" vertex="1" parent="1">
          <mxGeometry x="776" y="-403" width="100" height="100" as="geometry" />
        </mxCell>
        <mxCell id="f2r01Bv7eAkKPC_8rpOf-194" style="edgeStyle=orthogonalEdgeStyle;rounded=0;orthogonalLoop=1;jettySize=auto;html=1;" edge="1" parent="1" source="f2r01Bv7eAkKPC_8rpOf-41" target="f2r01Bv7eAkKPC_8rpOf-17">
          <mxGeometry relative="1" as="geometry">
            <Array as="points">
              <mxPoint x="954" y="-258" />
              <mxPoint x="954" y="-258" />
            </Array>
          </mxGeometry>
        </mxCell>
        <mxCell id="f2r01Bv7eAkKPC_8rpOf-41" value="Store data in pt blob files&lt;div&gt;(ready for model)&lt;/div&gt;" style="rounded=1;whiteSpace=wrap;html=1;absoluteArcSize=1;arcSize=14;strokeWidth=2;" vertex="1" parent="1">
          <mxGeometry x="904" y="-706" width="100" height="100" as="geometry" />
        </mxCell>
        <mxCell id="f2r01Bv7eAkKPC_8rpOf-63" style="edgeStyle=orthogonalEdgeStyle;rounded=0;orthogonalLoop=1;jettySize=auto;html=1;entryX=0.5;entryY=1;entryDx=0;entryDy=0;" edge="1" parent="1" source="f2r01Bv7eAkKPC_8rpOf-43" target="f2r01Bv7eAkKPC_8rpOf-62">
          <mxGeometry relative="1" as="geometry" />
        </mxCell>
        <mxCell id="f2r01Bv7eAkKPC_8rpOf-43" value="Convert data types to float64" style="rounded=1;whiteSpace=wrap;html=1;absoluteArcSize=1;arcSize=14;strokeWidth=2;" vertex="1" parent="1">
          <mxGeometry x="776" y="-554" width="100" height="100" as="geometry" />
        </mxCell>
        <mxCell id="f2r01Bv7eAkKPC_8rpOf-64" style="edgeStyle=orthogonalEdgeStyle;rounded=0;orthogonalLoop=1;jettySize=auto;html=1;" edge="1" parent="1" source="f2r01Bv7eAkKPC_8rpOf-62" target="f2r01Bv7eAkKPC_8rpOf-41">
          <mxGeometry relative="1" as="geometry" />
        </mxCell>
        <mxCell id="f2r01Bv7eAkKPC_8rpOf-62" value="Split data into test and train" style="rounded=1;whiteSpace=wrap;html=1;absoluteArcSize=1;arcSize=14;strokeWidth=2;" vertex="1" parent="1">
          <mxGeometry x="776" y="-706" width="100" height="100" as="geometry" />
        </mxCell>
        <mxCell id="f2r01Bv7eAkKPC_8rpOf-191" style="edgeStyle=orthogonalEdgeStyle;rounded=0;orthogonalLoop=1;jettySize=auto;html=1;exitX=0.75;exitY=0;exitDx=0;exitDy=0;entryX=0;entryY=0.5;entryDx=0;entryDy=0;" edge="1" parent="1" source="f2r01Bv7eAkKPC_8rpOf-15" target="f2r01Bv7eAkKPC_8rpOf-34">
          <mxGeometry relative="1" as="geometry">
            <Array as="points">
              <mxPoint x="312" y="-310" />
              <mxPoint x="411" y="-310" />
              <mxPoint x="411" y="-656" />
            </Array>
          </mxGeometry>
        </mxCell>
        <mxCell id="f2r01Bv7eAkKPC_8rpOf-193" style="edgeStyle=orthogonalEdgeStyle;rounded=0;orthogonalLoop=1;jettySize=auto;html=1;entryX=0.589;entryY=0.996;entryDx=0;entryDy=0;entryPerimeter=0;startArrow=classic;startFill=1;endArrow=none;endFill=0;" edge="1" parent="1" target="f2r01Bv7eAkKPC_8rpOf-36">
          <mxGeometry relative="1" as="geometry">
            <mxPoint x="680" y="-33" as="sourcePoint" />
            <mxPoint x="712" y="-606" as="targetPoint" />
            <Array as="points">
              <mxPoint x="704" y="-33" />
              <mxPoint x="704" y="-606" />
            </Array>
          </mxGeometry>
        </mxCell>
        <mxCell id="f2r01Bv7eAkKPC_8rpOf-199" style="edgeStyle=orthogonalEdgeStyle;rounded=0;orthogonalLoop=1;jettySize=auto;html=1;" edge="1" parent="1" source="f2r01Bv7eAkKPC_8rpOf-197" target="f2r01Bv7eAkKPC_8rpOf-198">
          <mxGeometry relative="1" as="geometry">
            <Array as="points">
              <mxPoint x="1055" y="452" />
              <mxPoint x="1055" y="452" />
            </Array>
          </mxGeometry>
        </mxCell>
        <mxCell id="f2r01Bv7eAkKPC_8rpOf-197" value="run_simulator.sh" style="rounded=1;whiteSpace=wrap;html=1;absoluteArcSize=1;arcSize=14;strokeWidth=2;" vertex="1" parent="1">
          <mxGeometry x="1000" y="225" width="100" height="100" as="geometry" />
        </mxCell>
        <mxCell id="f2r01Bv7eAkKPC_8rpOf-198" value="output Tearsheet.html" style="rounded=1;whiteSpace=wrap;html=1;absoluteArcSize=1;arcSize=14;strokeWidth=2;" vertex="1" parent="1">
          <mxGeometry x="1010" y="509" width="100" height="100" as="geometry" />
        </mxCell>
      </root>
    </mxGraphModel>
  </diagram>
  <diagram name="Model Architecture" id="tNtkmupVo7oXSBZEvAiZ">
    <mxGraphModel dx="1006" dy="859" grid="0" gridSize="10" guides="1" tooltips="1" connect="1" arrows="1" fold="1" page="0" pageScale="1" pageWidth="850" pageHeight="1100" background="#D4E1F5" math="0" shadow="0">
      <root>
        <mxCell id="DqpwkbMlb_3uHLsgdLLP-0" />
        <mxCell id="DqpwkbMlb_3uHLsgdLLP-1" parent="DqpwkbMlb_3uHLsgdLLP-0" />
        <mxCell id="DqpwkbMlb_3uHLsgdLLP-25" value="" style="rounded=0;whiteSpace=wrap;html=1;" vertex="1" parent="DqpwkbMlb_3uHLsgdLLP-1">
          <mxGeometry x="-234" y="181" width="938" height="480" as="geometry" />
        </mxCell>
        <mxCell id="DqpwkbMlb_3uHLsgdLLP-26" value="Return Trend Forecasting&lt;div&gt;Model Architecture&lt;/div&gt;" style="text;strokeColor=none;align=center;fillColor=none;html=1;verticalAlign=middle;whiteSpace=wrap;rounded=0;" vertex="1" parent="DqpwkbMlb_3uHLsgdLLP-1">
          <mxGeometry x="-227" y="206" width="100" height="30" as="geometry" />
        </mxCell>
        <mxCell id="DqpwkbMlb_3uHLsgdLLP-27" value="" style="group" vertex="1" connectable="0" parent="DqpwkbMlb_3uHLsgdLLP-1">
          <mxGeometry x="454" y="372" width="90" height="90" as="geometry" />
        </mxCell>
        <mxCell id="DqpwkbMlb_3uHLsgdLLP-28" value="" style="verticalLabelPosition=bottom;verticalAlign=top;html=1;shape=mxgraph.flowchart.on-page_reference;" vertex="1" parent="DqpwkbMlb_3uHLsgdLLP-27">
          <mxGeometry width="90" height="90" as="geometry" />
        </mxCell>
        <mxCell id="DqpwkbMlb_3uHLsgdLLP-29" value="" style="shape=image;verticalLabelPosition=bottom;labelBackgroundColor=default;verticalAlign=top;aspect=fixed;imageAspect=0;image=https://static.thenounproject.com/png/4823543-200.png;" vertex="1" parent="DqpwkbMlb_3uHLsgdLLP-27">
          <mxGeometry x="7.75" y="5.75" width="74.5" height="74.5" as="geometry" />
        </mxCell>
        <mxCell id="DqpwkbMlb_3uHLsgdLLP-30" value="" style="group" vertex="1" connectable="0" parent="DqpwkbMlb_3uHLsgdLLP-1">
          <mxGeometry x="315" y="372" width="90" height="90" as="geometry" />
        </mxCell>
        <mxCell id="DqpwkbMlb_3uHLsgdLLP-31" value="" style="verticalLabelPosition=bottom;verticalAlign=top;html=1;shape=mxgraph.flowchart.on-page_reference;" vertex="1" parent="DqpwkbMlb_3uHLsgdLLP-30">
          <mxGeometry width="90" height="90" as="geometry" />
        </mxCell>
        <mxCell id="DqpwkbMlb_3uHLsgdLLP-32" value="" style="shape=image;verticalLabelPosition=bottom;labelBackgroundColor=default;verticalAlign=top;aspect=fixed;imageAspect=0;image=https://static.thenounproject.com/png/3911638-200.png;" vertex="1" parent="DqpwkbMlb_3uHLsgdLLP-30">
          <mxGeometry x="11" y="17" width="69" height="69" as="geometry" />
        </mxCell>
        <mxCell id="DqpwkbMlb_3uHLsgdLLP-33" value="" style="rounded=0;whiteSpace=wrap;html=1;" vertex="1" parent="DqpwkbMlb_3uHLsgdLLP-1">
          <mxGeometry x="-196" y="270" width="433" height="294" as="geometry" />
        </mxCell>
        <mxCell id="DqpwkbMlb_3uHLsgdLLP-34" value="" style="shape=image;verticalLabelPosition=bottom;labelBackgroundColor=default;verticalAlign=top;aspect=fixed;imageAspect=0;image=https://docs.pymor.org/main/_images/lstm_cell.svg;" vertex="1" parent="DqpwkbMlb_3uHLsgdLLP-1">
          <mxGeometry x="-179.99857142857132" y="279.9957142857147" width="351" height="258" as="geometry" />
        </mxCell>
        <mxCell id="DqpwkbMlb_3uHLsgdLLP-35" value="LSTM Cell" style="text;strokeColor=none;align=center;fillColor=none;html=1;verticalAlign=middle;whiteSpace=wrap;rounded=0;" vertex="1" parent="DqpwkbMlb_3uHLsgdLLP-1">
          <mxGeometry x="-189" y="273" width="60" height="30" as="geometry" />
        </mxCell>
        <mxCell id="DqpwkbMlb_3uHLsgdLLP-36" style="edgeStyle=orthogonalEdgeStyle;rounded=0;orthogonalLoop=1;jettySize=auto;html=1;exitX=1;exitY=0.5;exitDx=0;exitDy=0;entryX=0;entryY=0.5;entryDx=0;entryDy=0;entryPerimeter=0;" edge="1" parent="DqpwkbMlb_3uHLsgdLLP-1" source="DqpwkbMlb_3uHLsgdLLP-33" target="DqpwkbMlb_3uHLsgdLLP-31">
          <mxGeometry relative="1" as="geometry" />
        </mxCell>
        <mxCell id="DqpwkbMlb_3uHLsgdLLP-37" style="edgeStyle=orthogonalEdgeStyle;rounded=0;orthogonalLoop=1;jettySize=auto;html=1;exitX=1;exitY=0.5;exitDx=0;exitDy=0;exitPerimeter=0;entryX=0;entryY=0.5;entryDx=0;entryDy=0;entryPerimeter=0;" edge="1" parent="DqpwkbMlb_3uHLsgdLLP-1" source="DqpwkbMlb_3uHLsgdLLP-31" target="DqpwkbMlb_3uHLsgdLLP-28">
          <mxGeometry relative="1" as="geometry" />
        </mxCell>
        <mxCell id="DqpwkbMlb_3uHLsgdLLP-38" value="" style="strokeWidth=2;html=1;shape=mxgraph.flowchart.annotation_2;align=left;labelPosition=right;pointerEvents=1;" vertex="1" parent="DqpwkbMlb_3uHLsgdLLP-1">
          <mxGeometry x="547" y="367" width="50" height="100" as="geometry" />
        </mxCell>
        <mxCell id="DqpwkbMlb_3uHLsgdLLP-39" value="Return will go up" style="ellipse;whiteSpace=wrap;html=1;" vertex="1" parent="DqpwkbMlb_3uHLsgdLLP-1">
          <mxGeometry x="599" y="329" width="83" height="80" as="geometry" />
        </mxCell>
        <mxCell id="DqpwkbMlb_3uHLsgdLLP-40" value="Return will go down or stay the same" style="ellipse;whiteSpace=wrap;html=1;" vertex="1" parent="DqpwkbMlb_3uHLsgdLLP-1">
          <mxGeometry x="599" y="429" width="83" height="80" as="geometry" />
        </mxCell>
        <mxCell id="sCO2r1mBODxSLKj3T70V-0" value="" style="rounded=0;whiteSpace=wrap;html=1;" vertex="1" parent="DqpwkbMlb_3uHLsgdLLP-1">
          <mxGeometry x="-221" y="715" width="433" height="294" as="geometry" />
        </mxCell>
        <mxCell id="sCO2r1mBODxSLKj3T70V-1" value="LSTM Cell" style="text;strokeColor=none;align=center;fillColor=none;html=1;verticalAlign=middle;whiteSpace=wrap;rounded=0;" vertex="1" parent="DqpwkbMlb_3uHLsgdLLP-1">
          <mxGeometry x="-214" y="718" width="60" height="30" as="geometry" />
        </mxCell>
        <mxCell id="sCO2r1mBODxSLKj3T70V-2" value="" style="rounded=1;whiteSpace=wrap;html=1;" vertex="1" parent="DqpwkbMlb_3uHLsgdLLP-1">
          <mxGeometry x="-138" y="790" width="244" height="135" as="geometry" />
        </mxCell>
      </root>
    </mxGraphModel>
  </diagram>
</mxfile>
